<svg
   width="204"
   height="204"
   viewBox="0 0 204 204"
   fill="none"
   xmlns="http://www.w3.org/2000/svg">
  <path
     d="m 187.639,69.9021 c 5.453,-2.0435 11.587,0.7122 13.057,6.3463 5.542,21.2379 4.106,43.8026 -4.26,64.2976 -9.699,23.764 -28.001,42.997 -51.254,53.863 -23.254,10.866 -49.7487,12.566 -74.1999,4.76 C 46.5309,191.364 25.9211,174.628 13.2642,152.299 0.607328,129.97 -3.16618,103.69 2.6965,78.7016 8.55918,53.7134 23.627,31.854 44.8941,17.4842 66.1612,3.11439 91.564712,-2.959094 118.36316,0.76853869 135.17385,2.7483134 136.31391,12.619414 133.74356,17.844187 c -2.57038,5.224682 -7.1282,8.552342 -19.75627,4.947324 C 94.867182,18.687106 73.5701,23.5566 56.6994,34.9558 39.8288,46.355 27.8758,63.6955 23.2251,83.518 c -4.6507,19.822 -1.6572,40.67 8.3831,58.383 10.0404,17.713 26.3897,30.989 45.7861,37.181 19.3965,6.192 40.4147,4.843 58.8607,-3.777 18.446,-8.619 32.964,-23.876 40.659,-42.727 6.359,-15.579 7.67,-32.6663 3.901,-48.89 -1.318,-5.6716 1.372,-11.7423 6.824,-13.7859 z"
     fill="url(#paint0_linear_16_344)"
     id="path1"/>
  <defs
     id="defs3">
    <linearGradient
       id="paint0_linear_16_344"
       x1="-12.4348"
       y1="91.2145"
       x2="228.124"
       y2="92.098"
       gradientUnits="userSpaceOnUse">
      <stop
         stop-color="#AA367C"
         id="stop2" />
      <stop
         offset="1"
         stop-color="#4A2FBD"
         id="stop3" />
    </linearGradient>
  </defs>
  <text
     xml:space="preserve"
     style="font-weight:bold;font-size:36.4315px;font-family:'Centra No2';-inkscape-font-specification:'Centra No2, Bold';fill:#ffffff;stroke-width:1.36619"
     x="64.231819"
     y="116.10163"
     id="text3"
     transform="scale(1.0093097,0.99077618)"><tspan
       id="tspan3"
       x="64.231819"
       y="116.10163"
       style="stroke-width:1.36619">80%</tspan></text>
</svg>
