<svg
   width="204"
   height="204"
   viewBox="0 0 204 204"
   fill="none"
   version="1.1"
   id="svg3"
   xmlns="http://www.w3.org/2000/svg">
  <path
     d="m 81.913808,179.65442 c 13.020678,2.4669 40.728622,2.01187 54.341192,-4.34942 18.446,-8.619 32.964,-23.876 40.659,-42.727 6.359,-15.579 7.67,-32.6663 3.901,-48.89 -1.318,-5.6716 1.372,-11.7423 6.824,-13.7859 5.453,-2.0435 11.587,0.7122 13.057,6.3463 5.542,21.2379 4.106,43.8026 -4.26,64.2976 -9.699,23.764 -28.001,42.997 -51.254,53.863 -23.254,10.866 -49.7487,12.81569 -74.1999,5.00969 C 51.422375,193.17508 32.35271,184.05745 16.788291,159.5083 6.845905,143.82655 2.3127432,136.04133 0.29972348,116.80499 0.2842558,109.80366 3.7110183,104.53275 9.4919883,103.83611 c 5.7809177,-0.69656 10.8778927,5.29229 11.6890937,9.46063 2.073353,10.65388 7.352403,25.89797 18.709546,39.10351 12.658116,14.71824 32.587476,25.46648 42.02318,27.25417 z"
     fill="url(#paint0_linear_16_344)"
     id="path1"/>
  <defs
     id="defs3">
    <linearGradient
       id="paint0_linear_16_344"
       x1="-12.4348"
       y1="91.2145"
       x2="228.124"
       y2="92.098"
       gradientUnits="userSpaceOnUse">
      <stop
         stop-color="#AA367C"
         id="stop2" />
      <stop
         offset="1"
         stop-color="#4A2FBD"
         id="stop3" />
    </linearGradient>
  </defs>
  <text
     xml:space="preserve"
     style="font-weight:bold;font-size:36.4315px;font-family:'Centra No2';-inkscape-font-specification:'Centra No2, Bold';fill:#ffffff;stroke-width:1.36619"
     x="64.231819"
     y="116.10163"
     id="text3"
     transform="scale(1.0093097,0.99077618)"><tspan
       id="tspan3"
       x="64.231819"
       y="116.10163"
       style="stroke-width:1.36619">50%</tspan></text>
</svg>
