<svg
   width="70"
   height="41"
   viewBox="0 0 70 41"
   fill="none"
   xmlns="http://www.w3.org/2000/svg">
  <defs
     id="defs4" />
  <g
     id="g1"
     transform="translate(-42.499983)">
    <path
       d="m 79.492187,39.03125 c -0.01796,0.05902 -0.03685,0.116244 -0.05859,0.152344 -0.02759,0.04582 -0.05792,0.07227 -0.08984,0.07227 h -3.6875 c -0.03192,0 -0.06225,-0.02645 -0.08984,-0.07227 -0.02759,-0.04581 -0.05339,-0.11132 -0.07422,-0.19336 -0.02083,-0.08204 -0.0372,-0.180386 -0.04883,-0.289062 -0.01168,-0.108676 -0.01758,-0.227791 -0.01758,-0.353516 v -1.132812 c -0.615316,-0.02856 -1.228681,-0.06733 -1.839844,-0.121094 -0.648093,-0.0567 -1.29224,-0.128201 -1.93164,-0.212891 -0.6394,-0.08469 -1.274083,-0.18257 -1.902344,-0.294922 -0.628167,-0.112466 -1.250265,-0.239494 -1.863281,-0.378906 -0.61302,-0.139411 -1.216979,-0.291212 -1.8125,-0.457031 -0.595549,-0.165847 -1.181601,-0.343954 -1.75586,-0.535156 -0.574254,-0.191203 -1.136727,-0.395506 -1.6875,-0.611328 -0.550759,-0.215836 -1.08951,-0.442557 -1.613281,-0.681641 -0.523766,-0.239084 -1.032568,-0.490533 -1.527344,-0.751953 -0.495006,-0.261395 -0.97464,-0.53433 -1.4375,-0.816406 -0.462855,-0.282081 -0.908956,-0.573317 -1.33789,-0.875 C 56.288002,31.176975 55.876558,30.866089 55.484381,30.546875 55.092204,30.227661 54.719298,29.900119 54.36524,29.564453 54.01116,29.228617 53.676963,28.885314 53.363287,28.535156 53.049609,28.185003 52.756443,27.82798 52.484375,27.464844 52.212347,27.101578 51.961083,26.733311 51.732422,26.359375 51.503761,25.985439 51.297701,25.605832 51.113281,25.222656 50.928869,24.839883 50.766039,24.454024 50.626953,24.064453 50.487867,23.674887 50.372525,23.28159 50.279297,22.886719 50.186187,22.491468 50.116892,22.095302 50.070312,21.697266 50.023733,21.299226 49.999865,20.899306 50,20.5 c -1.35e-4,-0.399306 0.02373,-0.799226 0.07031,-1.197266 0.04658,-0.398036 0.115871,-0.794202 0.208985,-1.189453 0.09323,-0.394871 0.20857,-0.788168 0.347656,-1.177734 0.139086,-0.389571 0.301916,-0.77543 0.486328,-1.158203 0.18442,-0.383176 0.39048,-0.762783 0.619141,-1.136719 0.228661,-0.373936 0.479925,-0.742203 0.751953,-1.105469 0.272068,-0.363136 0.565234,-0.720159 0.878906,-1.070312 0.313676,-0.350158 0.647873,-0.693461 1.001953,-1.029297 0.354058,-0.335666 0.726964,-0.663208 1.119141,-0.982422 0.392177,-0.319214 0.803625,-0.6301013 1.232422,-0.9316406 0.428934,-0.3016862 0.875035,-0.5929206 1.33789,-0.875 0.46286,-0.2820794 0.942494,-0.5550123 1.4375,-0.8164063 0.494776,-0.2614184 1.003578,-0.5128695 1.527344,-0.7519531 0.523771,-0.2390836 1.062522,-0.4658064 1.613281,-0.6816406 0.550773,-0.2158254 1.113246,-0.4201262 1.6875,-0.6113282 0.143566,-0.047801 0.272494,-0.1017602 0.400391,-0.1679687 0.127897,-0.066209 0.25506,-0.1443373 0.390625,-0.2402344 0.271131,-0.1917941 0.581612,-0.4538024 1.023438,-0.8320312 0.661007,-0.6812247 0.777952,-0.8133749 0.875,-0.9179688 0.09705,-0.1045938 0.173086,-0.1815801 0.751953,-0.7539062 l 1.570312,-1.2890625 c 0.02041,-0.016745 0.02101,-0.041721 0.01758,-0.068359 -0.0034,-0.026638 -0.01075,-0.054937 -0.0098,-0.080078 -0.0686,0.010893 -0.138547,0.018128 -0.207032,0.029297 -0.68142,0.1112388 -1.355767,0.2369062 -2.023437,0.375 -0.66767,0.1380943 -1.328689,0.288619 -1.980469,0.4531251 -0.651568,0.1646848 -1.293611,0.3429981 -1.925781,0.5332031 -0.63217,0.190205 -1.254493,0.3923077 -1.865234,0.6074219 -0.610932,0.2149653 -1.210628,0.442907 -1.796875,0.6816406 -0.586251,0.2387331 -1.159068,0.4882656 -1.71875,0.75 -0.559811,0.2620589 -1.104538,0.5346801 -1.634766,0.8183593 -0.530228,0.2836797 -1.046009,0.5784266 -1.544922,0.8828125 -0.498687,0.3040338 -0.98055,0.6183182 -1.445312,0.9414063 -0.464767,0.3230881 -0.912452,0.6549889 -1.341797,0.9960938 -0.429527,0.3410839 -0.840615,0.6895889 -1.232422,1.046875 -0.391811,0.3572856 -0.764351,0.723366 -1.117188,1.095703 -0.352916,0.372552 -0.686031,0.7511 -0.998047,1.136719 -0.312011,0.385623 -0.602943,0.778331 -0.873046,1.175781 -0.270029,0.39742 -0.51941,0.799913 -0.746094,1.207032 -0.226684,0.407114 -0.430676,0.818865 -0.613281,1.234375 -0.182446,0.415287 -0.343026,0.83441 -0.480469,1.255859 -0.137443,0.421449 -0.251751,0.845235 -0.34375,1.271484 -0.09222,0.426406 -0.160783,0.854267 -0.207031,1.283203 -0.04625,0.428941 -0.07018,0.858967 -0.07031,1.289063 1.3e-4,0.430096 0.02406,0.860126 0.07031,1.289062 0.04625,0.428941 0.114814,0.856798 0.207031,1.283204 0.092,0.426249 0.206307,0.850035 0.34375,1.271484 0.137443,0.421449 0.298023,0.840572 0.480469,1.255859 0.182605,0.41551 0.386597,0.827261 0.613281,1.234375 0.226684,0.407119 0.476065,0.809612 0.746094,1.207032 0.270103,0.39745 0.561035,0.790158 0.873046,1.175781 0.312016,0.385619 0.645131,0.764167 0.998047,1.136719 0.352837,0.372337 0.725377,0.738415 1.117188,1.095703 0.391807,0.357283 0.802895,0.705789 1.232422,1.046875 0.429345,0.341102 0.87703,0.673008 1.341797,0.996093 0.464762,0.32309 0.946625,0.637372 1.445312,0.941407 0.498913,0.304383 1.014694,0.599136 1.544922,0.882812 0.530228,0.283681 1.07492,0.556299 1.634766,0.81836 0.559682,0.261731 1.132499,0.511265 1.71875,0.75 0.586247,0.23873 1.185943,0.466674 1.796875,0.68164 0.610741,0.215115 1.233064,0.417216 1.865234,0.607422 0.63217,0.190206 1.274213,0.368517 1.925781,0.533203 0.65178,0.164507 1.312799,0.315031 1.980469,0.453125 0.66767,0.138095 1.342017,0.263761 2.023437,0.375 0.681678,0.111173 1.368775,0.209265 2.060547,0.292969 0.691777,0.0837 1.388244,0.153019 2.087891,0.208984 0.699326,0.05635 1.401968,0.09862 2.105469,0.126953 0.703497,0.02834 1.407873,0.04274 2.113281,0.04297 0.664991,-2.15e-4 1.328903,-0.01581 1.992187,-0.04102 z"
       style="fill:#ffffff"
       id="path65" />
    <path
       d="m 77.5,0.79296875 c -0.705408,2.2799e-4 -1.409784,0.0146337 -2.113281,0.0429687 -0.04112,0.001656 -0.08194,0.006058 -0.123047,0.007813 0.01238,0.0327685 0.0266,0.0562758 0.03711,0.0976563 0.02083,0.0820387 0.0372,0.18038755 0.04883,0.28906245 0.01163,0.1086755 0.01758,0.2277915 0.01758,0.3535157 V 3.789063 c 0.01959,-9.351e-4 0.039,-0.003 0.05859,-0.00391 V 2.6523438 c 0,-0.1257243 0.0059,-0.2448403 0.01758,-0.3535157 0.01163,-0.1086753 0.028,-0.2070236 0.04883,-0.2890625 0.02083,-0.082038 0.04663,-0.1475464 0.07422,-0.1933594 0.02759,-0.045814 0.05792,-0.072266 0.08984,-0.072266 h 3.6875 c 0.03192,0 0.06225,0.026453 0.08984,0.072266 0.02759,0.045813 0.05339,0.1113205 0.07422,0.1933594 0.02083,0.082038 0.0372,0.1803872 0.04883,0.2890625 0.01168,0.1086754 0.01758,0.2277914 0.01758,0.3535157 v 1.1367187 c 0.207008,0.00955 0.414481,0.014934 0.621093,0.027344 0.447884,0.026515 0.894638,0.059728 1.339844,0.099609 0.44518,0.040233 0.888678,0.087122 1.330078,0.140625 0.441174,0.053972 0.880108,0.1145378 1.316407,0.1816406 0.436458,0.06642 0.870188,0.1393588 1.300781,0.21875 0.430473,0.079536 0.85769,0.1655004 1.28125,0.2578125 0.42384,0.092656 0.843898,0.1916453 1.259765,0.296875 0.415881,0.1051508 0.827468,0.2165135 1.234375,0.3339844 0.406583,0.1170222 0.808396,0.2401076 1.205079,0.3691406 0.397322,0.1295237 0.789372,0.2649828 1.175781,0.40625 0.385384,0.1407913 0.76506,0.2873207 1.138672,0.4394532 0.374151,0.1526712 0.74211,0.310924 1.103515,0.4746093 0.361553,0.1632851 0.716482,0.3319572 1.064453,0.5058594 0.348307,0.1739018 0.689555,0.3529938 1.023438,0.5371094 0.333102,0.1845514 0.658725,0.3740636 0.976562,0.5683594 0.318497,0.1938888 0.629138,0.3925184 0.931641,0.5957031 0.301934,0.2032583 0.595647,0.4110051 0.880859,0.6230469 0.28535,0.2119747 0.562127,0.4281867 0.830079,0.6484377 0.268079,0.220051 0.527276,0.444077 0.777336,0.671875 0.25019,0.22813 0.49114,0.459976 0.72266,0.695312 0.23094,0.235583 0.45236,0.474587 0.66406,0.716797 0.2123,0.241727 0.41483,0.486592 0.60743,0.734375 0.1923,0.247887 0.3747,0.498619 0.54687,0.751953 0.17239,0.253396 0.33455,0.509333 0.48633,0.767579 0.15174,0.258259 0.29306,0.518759 0.42383,0.78125 0.13041,0.262486 0.25024,0.526898 0.35937,0.792968 0.10906,0.266068 0.2074,0.533727 0.29492,0.802735 0.0884,0.269626 0.16589,0.540546 0.23243,0.8125 0.0656,0.271272 0.12033,0.543494 0.16406,0.816406 0.0442,0.2729 0.0774,0.546425 0.0996,0.820312 C 104.98892,19.951616 105,20.225787 105,20.5 c 1.3e-4,0.399306 -0.0237,0.799226 -0.0703,1.197266 -0.0466,0.398036 -0.11589,0.794202 -0.20899,1.189453 -0.0932,0.394871 -0.20857,0.788168 -0.34765,1.177734 -0.13909,0.389571 -0.30192,0.77543 -0.48633,1.158203 -0.18442,0.383176 -0.39048,0.762783 -0.61914,1.136719 -0.22866,0.373936 -0.47997,0.742203 -0.75195,1.105469 -0.27207,0.363136 -0.56524,0.720159 -0.87891,1.070312 -0.31368,0.350158 -0.64787,0.693461 -1.00195,1.029297 -0.35406,0.335666 -0.726968,0.663208 -1.119145,0.982422 -0.392177,0.319214 -0.803624,0.6301 -1.232422,0.931641 -0.428934,0.301683 -0.875031,0.592919 -1.337891,0.875 -0.462855,0.282076 -0.942488,0.555011 -1.4375,0.816406 -0.494771,0.26142 -1.00553,0.512869 -1.529296,0.751953 -0.523771,0.239084 -1.060565,0.465805 -1.611329,0.681641 -0.550768,0.215822 -1.113241,0.420125 -1.6875,0.611328 -0.287127,0.0956 -0.461174,0.130325 -0.638671,0.205078 -0.08875,0.03738 -0.178755,0.08428 -0.283204,0.154297 -0.104448,0.07002 -0.224159,0.163123 -0.373046,0.291015 -0.413003,0.327798 -0.534903,0.413222 -0.628907,0.496094 -0.094,0.08287 -0.15967,0.164138 -0.46289,0.480469 -0.361622,0.377256 -0.411529,0.409227 -0.470703,0.480469 -0.05917,0.07124 -0.127638,0.181695 -0.525391,0.714843 l -1.429688,1.498047 c 0.681425,-0.111239 1.355767,-0.236905 2.023438,-0.375 0.667671,-0.138094 1.328689,-0.288618 1.980469,-0.453125 0.651568,-0.164686 1.293611,-0.342997 1.925781,-0.533203 0.63217,-0.190206 1.254493,-0.392307 1.865234,-0.607422 0.610932,-0.214966 1.210628,-0.44291 1.796875,-0.68164 0.586251,-0.238735 1.159068,-0.488269 1.71875,-0.75 0.559845,-0.262061 1.104539,-0.534679 1.634766,-0.81836 0.530227,-0.283676 1.046019,-0.578429 1.54492,-0.882812 0.49869,-0.304035 0.98055,-0.618317 1.44531,-0.941407 0.46477,-0.323085 0.91245,-0.654991 1.3418,-0.996093 0.42953,-0.341086 0.84061,-0.689592 1.23242,-1.046875 0.39182,-0.357288 0.76436,-0.723366 1.11719,-1.095703 0.35292,-0.372553 0.68603,-0.7511 0.99805,-1.136719 0.31201,-0.385623 0.60294,-0.778331 0.87304,-1.175781 0.27003,-0.39742 0.51941,-0.799913 0.7461,-1.207032 0.22668,-0.407114 0.43067,-0.818865 0.61328,-1.234375 0.18244,-0.415287 0.34302,-0.83441 0.48047,-1.255859 0.13744,-0.421449 0.25175,-0.845235 0.34375,-1.271484 0.0922,-0.426406 0.16078,-0.854263 0.20703,-1.283204 0.0463,-0.428936 0.0702,-0.858966 0.0703,-1.289062 -2e-4,-0.295036 -0.0113,-0.590033 -0.0332,-0.884766 -0.0218,-0.294023 -0.0543,-0.587721 -0.0977,-0.880859 -0.0432,-0.293671 -0.0973,-0.586719 -0.16211,-0.878906 -0.0648,-0.292665 -0.14029,-0.58441 -0.22656,-0.875 -0.0864,-0.289701 -0.18347,-0.578185 -0.29101,-0.865235 -0.10795,-0.287387 -0.22647,-0.573276 -0.35547,-0.857421 -0.12825,-0.284415 -0.26696,-0.567038 -0.41602,-0.847657 -0.14991,-0.280145 -0.31011,-0.558214 -0.48047,-0.833984 -0.16961,-0.27586 -0.34934,-0.549366 -0.53906,-0.820313 -0.18993,-0.271579 -0.38985,-0.540537 -0.59961,-0.80664 -0.21037,-0.265346 -0.43048,-0.527782 -0.66016,-0.78711 -0.22881,-0.259733 -0.46715,-0.516313 -0.71484,-0.769531 -0.24796,-0.252833 -0.50518,-0.5022458 -0.77148,-0.7480467 -0.26641,-0.2465801 -0.54187,-0.489482 -0.82618,-0.7285157 -0.28431,-0.2383504 -0.57735,-0.4727869 -0.8789,-0.703125 -0.30152,-0.230119 -0.61152,-0.4560878 -0.92969,-0.6777344 -0.31803,-0.2225377 -0.64435,-0.440694 -0.97852,-0.6542968 -0.33473,-0.2129933 -0.67726,-0.4213812 -1.027339,-0.625 C 99.488553,6.0524376 99.131593,5.8538225 98.767578,5.6601562 98.403478,5.4663042 98.032286,5.2774526 97.654297,5.09375 97.276177,4.9094679 96.891314,4.7303848 96.5,4.5566406 96.109095,4.3832631 95.711855,4.2152501 95.308594,4.0527344 94.904887,3.8909074 94.495278,3.7346166 94.080078,3.5839844 93.664935,3.4324127 93.244251,3.2865411 92.818359,3.1464844 92.39234,3.0071437 91.961233,2.8736451 91.525391,2.7460938 91.089849,2.6176906 90.649634,2.4952625 90.205078,2.3789063 89.759949,2.2633978 89.310607,2.1539937 88.857422,2.0507813 88.404695,1.9468926 87.9482,1.8492107 87.488281,1.7578125 87.028567,1.6668593 86.565555,1.5822021 86.099609,1.5039062 85.633583,1.4252379 85.16471,1.3529532 84.693359,1.2871094 84.221623,1.2220382 83.74754,1.1634297 83.271484,1.1113281 82.796036,1.0585866 82.318693,1.0123505 81.839844,0.97265625 81.360658,0.93288441 80.880068,0.89967257 80.398437,0.87304688 79.9168,0.84691922 79.434247,0.82738285 78.951172,0.81445313 78.467773,0.80067061 77.983927,0.79350729 77.5,0.79296875 Z"
       style="fill:#ffffff"
       id="path55" />
    <path
       d="m 90.746094,18.892578 a 13.505781,8.2334626 0 0 1 0.113281,0.400391 13.505781,8.2334626 0 0 1 0.08203,0.40039 13.505781,8.2334626 0 0 1 0.04883,0.378907 13.505781,8.2334626 0 0 0 -0.04883,-0.388672 13.505781,8.2334626 0 0 0 0,-0.0039 13.505781,8.2334626 0 0 0 -0.08203,-0.396484 13.505781,8.2334626 0 0 0 0,-0.0039 13.505781,8.2334626 0 0 0 -0.113281,-0.386719 z"
       style="fill:#ffffff;stroke:#ffffff;stroke-width:1.891"
       id="path67" />
    <path
       d="m 79.574219,10.90625 v 1.458984 a 13.505781,8.2334626 0 0 1 0.560547,0.05859 13.505781,8.2334626 0 0 1 0.646484,0.08984 13.505781,8.2334626 0 0 1 0.638672,0.107422 13.505781,8.2334626 0 0 1 0.628906,0.126953 13.505781,8.2334626 0 0 1 0.619141,0.144531 13.505781,8.2334626 0 0 1 0.607422,0.164063 13.505781,8.2334626 0 0 1 0.591796,0.18164 13.505781,8.2334626 0 0 1 0.576172,0.199219 13.505781,8.2334626 0 0 1 0.560547,0.216797 13.505781,8.2334626 0 0 1 0.541016,0.232422 13.505781,8.2334626 0 0 1 0.523437,0.248047 13.505781,8.2334626 0 0 1 0.501953,0.263672 13.505781,8.2334626 0 0 1 0.480469,0.279296 13.505781,8.2334626 0 0 1 0.457031,0.292969 13.505781,8.2334626 0 0 1 0.431641,0.306641 13.505781,8.2334626 0 0 1 0.408203,0.318359 13.505781,8.2334626 0 0 1 0.382813,0.330078 13.505781,8.2334626 0 0 1 0.353515,0.341797 13.505781,8.2334626 0 0 1 0.326172,0.351563 13.505781,8.2334626 0 0 1 0.298828,0.361328 13.505781,8.2334626 0 0 1 0.267578,0.36914 13.505781,8.2334626 0 0 1 0.240235,0.376953 13.505781,8.2334626 0 0 1 0.207031,0.382813 13.505781,8.2334626 0 0 1 0.177734,0.390625 13.505781,8.2334626 0 0 1 0.144532,0.392578 13.505781,8.2334626 0 0 1 0.113281,0.386719 13.505781,8.2334626 0 0 1 0,0.0039 13.505781,8.2334626 0 0 1 0.08203,0.396484 13.505781,8.2334626 0 0 1 0,0.0039 13.505781,8.2334626 0 0 1 0.04883,0.388672 13.505781,8.2334626 0 0 1 0,0.002 13.505781,8.2334626 0 0 1 0,0.002 13.505781,8.2334626 0 0 1 0,0.002 13.505781,8.2334626 0 0 1 0,0.002 13.505781,8.2334626 0 0 1 0,0.002 13.505781,8.2334626 0 0 1 0,0.002 13.505781,8.2334626 0 0 1 0,0.002 13.505781,8.2334626 0 0 1 0,0.002 13.505781,8.2334626 0 0 1 0,0.002 13.505781,8.2334626 0 0 1 0,0.002 13.505781,8.2334626 0 0 1 0,0.002 13.505781,8.2334626 0 0 1 0,0.002 13.505781,8.2334626 0 0 1 0,0.002 13.505781,8.2334626 0 0 1 0,0.002 13.505781,8.2334626 0 0 1 0,0.002 13.505781,8.2334626 0 0 0 0.002,0 13.505781,8.2334626 0 0 0 0,0.002 13.505781,8.2334626 0 0 1 0,0.002 13.505781,8.2334626 0 0 1 0,0.002 13.505781,8.2334626 0 0 1 0,0.002 13.505781,8.2334626 0 0 1 0,0.002 13.505781,8.2334626 0 0 1 0,0.002 13.505781,8.2334626 0 0 1 0,0.002 13.505781,8.2334626 0 0 1 0,0.002 13.505781,8.2334626 0 0 1 0,0.002 13.505781,8.2334626 0 0 1 0,0.002 13.505781,8.2334626 0 0 1 0,0.002 13.505781,8.2334626 0 0 1 0,0.002 13.505781,8.2334626 0 0 1 0,0.002 13.505781,8.2334626 0 0 1 0,0.002 13.505781,8.2334626 0 0 0 0.002,0 13.505781,8.2334626 0 0 0 0,0.002 13.505781,8.2334626 0 0 1 0,0.002 13.505781,8.2334626 0 0 1 0,0.002 13.505781,8.2334626 0 0 1 0,0.002 13.505781,8.2334626 0 0 1 0,0.002 13.505781,8.2334626 0 0 1 0,0.002 13.505781,8.2334626 0 0 1 0,0.002 13.505781,8.2334626 0 0 1 0,0.002 13.505781,8.2334626 0 0 1 0,0.002 13.505781,8.2334626 0 0 1 0,0.002 13.505781,8.2334626 0 0 1 0,0.002 13.505781,8.2334626 0 0 1 0,0.002 13.505781,8.2334626 0 0 1 0,0.002 13.505781,8.2334626 0 0 1 0,0.002 13.505781,8.2334626 0 0 0 0.002,0 13.505781,8.2334626 0 0 0 0,0.002 13.505781,8.2334626 0 0 1 0,0.002 13.505781,8.2334626 0 0 1 0,0.002 13.505781,8.2334626 0 0 1 0,0.002 13.505781,8.2334626 0 0 1 0,0.002 13.505781,8.2334626 0 0 1 0,0.002 13.505781,8.2334626 0 0 1 0,0.002 13.505781,8.2334626 0 0 1 0,0.002 13.505781,8.2334626 0 0 1 0,0.002 13.505781,8.2334626 0 0 1 0,0.002 13.505781,8.2334626 0 0 1 0,0.002 13.505781,8.2334626 0 0 1 0,0.002 13.505781,8.2334626 0 0 1 0,0.002 13.505781,8.2334626 0 0 1 0,0.002 13.505781,8.2334626 0 0 1 0,0.002 13.505781,8.2334626 0 0 1 0,0.002 13.505781,8.2334626 0 0 1 0,0.002 13.505781,8.2334626 0 0 1 0,0.002 13.505781,8.2334626 0 0 1 0,0.002 13.505781,8.2334626 0 0 1 0,0.002 13.505781,8.2334626 0 0 1 0,0.002 13.505781,8.2334626 0 0 1 0,0.002 13.505781,8.2334626 0 0 1 0,0.002 13.505781,8.2334626 0 0 0 0.002,0 13.505781,8.2334626 0 0 0 0,0.002 13.505781,8.2334626 0 0 1 0,0.002 13.505781,8.2334626 0 0 1 0,0.002 13.505781,8.2334626 0 0 1 0,0.002 13.505781,8.2334626 0 0 1 0,0.002 13.505781,8.2334626 0 0 1 0,0.002 13.505781,8.2334626 0 0 1 0,0.002 13.505781,8.2334626 0 0 1 0,0.002 13.505781,8.2334626 0 0 1 0,0.002 13.505781,8.2334626 0 0 1 0,0.002 13.505781,8.2334626 0 0 1 0,0.002 13.505781,8.2334626 0 0 1 0,0.002 13.505781,8.2334626 0 0 1 0,0.002 13.505781,8.2334626 0 0 1 0,0.002 13.505781,8.2334626 0 0 0 0.002,0 13.505781,8.2334626 0 0 0 0,0.002 13.505781,8.2334626 0 0 1 0,0.002 13.505781,8.2334626 0 0 1 0,0.002 13.505781,8.2334626 0 0 1 0,0.002 13.505781,8.2334626 0 0 1 0,0.002 13.505781,8.2334626 0 0 1 0,0.002 13.505781,8.2334626 0 0 1 0,0.002 13.505781,8.2334626 0 0 1 0,0.002 13.505781,8.2334626 0 0 1 0,0.002 13.505781,8.2334626 0 0 1 0,0.002 13.505781,8.2334626 0 0 1 0,0.002 13.505781,8.2334626 0 0 1 0,0.002 13.505781,8.2334626 0 0 1 0,0.002 13.505781,8.2334626 0 0 1 0,0.002 13.505781,8.2334626 0 0 1 0,0.002 13.505781,8.2334626 0 0 1 0,0.002 13.505781,8.2334626 0 0 1 0,0.002 13.505781,8.2334626 0 0 1 0,0.002 13.505781,8.2334626 0 0 1 0,0.002 13.505781,8.2334626 0 0 1 0,0.002 13.505781,8.2334626 0 0 1 0,0.002 13.505781,8.2334626 0 0 0 0.002,0 13.505781,8.2334626 0 0 0 0,0.002 13.505781,8.2334626 0 0 1 0,0.002 13.505781,8.2334626 0 0 1 0,0.002 13.505781,8.2334626 0 0 1 0,0.002 13.505781,8.2334626 0 0 1 0,0.002 13.505781,8.2334626 0 0 1 0,0.002 13.505781,8.2334626 0 0 1 0,0.002 13.505781,8.2334626 0 0 1 0,0.002 13.505781,8.2334626 0 0 1 0,0.002 13.505781,8.2334626 0 0 1 0,0.002 13.505781,8.2334626 0 0 1 0,0.002 13.505781,8.2334626 0 0 1 0,0.002 13.505781,8.2334626 0 0 1 0,0.002 13.505781,8.2334626 0 0 1 0,0.002 13.505781,8.2334626 0 0 1 0,0.002 13.505781,8.2334626 0 0 1 0,0.002 13.505781,8.2334626 0 0 1 0,0.002 13.505781,8.2334626 0 0 1 0,0.002 13.505781,8.2334626 0 0 1 0,0.002 13.505781,8.2334626 0 0 1 0,0.002 13.505781,8.2334626 0 0 1 0,0.002 13.505781,8.2334626 0 0 1 0,0.002 13.505781,8.2334626 0 0 1 0,0.002 13.505781,8.2334626 0 0 1 0,0.002 13.505781,8.2334626 0 0 1 0,0.002 13.505781,8.2334626 0 0 1 0,0.002 13.505781,8.2334626 0 0 1 0,0.002 13.505781,8.2334626 0 0 1 0,0.002 13.505781,8.2334626 0 0 1 0,0.002 13.505781,8.2334626 0 0 1 0,0.002 13.505781,8.2334626 0 0 0 0.002,0 13.505781,8.2334626 0 0 0 0,0.002 13.505781,8.2334626 0 0 1 0,0.002 13.505781,8.2334626 0 0 1 0,0.002 13.505781,8.2334626 0 0 1 0,0.002 13.505781,8.2334626 0 0 1 0,0.002 13.505781,8.2334626 0 0 1 0,0.002 13.505781,8.2334626 0 0 1 0,0.002 13.505781,8.2334626 0 0 1 0,0.002 13.505781,8.2334626 0 0 1 0,0.002 13.505781,8.2334626 0 0 1 0,0.002 13.505781,8.2334626 0 0 1 0,0.002 13.505781,8.2334626 0 0 1 0,0.002 13.505781,8.2334626 0 0 1 0,0.002 13.505781,8.2334626 0 0 1 0,0.002 13.505781,8.2334626 0 0 1 0,0.002 13.505781,8.2334626 0 0 1 0,0.002 13.505781,8.2334626 0 0 1 0,0.002 13.505781,8.2334626 0 0 1 0,0.002 13.505781,8.2334626 0 0 1 0,0.002 13.505781,8.2334626 0 0 1 0,0.002 13.505781,8.2334626 0 0 1 0,0.002 13.505781,8.2334626 0 0 1 0,0.002 13.505781,8.2334626 0 0 1 0,0.002 13.505781,8.2334626 0 0 1 0,0.002 13.505781,8.2334626 0 0 1 0,0.002 13.505781,8.2334626 0 0 1 0,0.002 13.505781,8.2334626 0 0 1 0,0.002 13.505781,8.2334626 0 0 1 0,0.002 13.505781,8.2334626 0 0 1 0,0.002 13.505781,8.2334626 0 0 1 0,0.002 13.505781,8.2334626 0 0 1 0,0.002 13.505781,8.2334626 0 0 1 0,0.002 13.505781,8.2334626 0 0 1 0,0.002 13.505781,8.2334626 0 0 1 0,0.002 13.505781,8.2334626 0 0 1 0,0.002 13.505781,8.2334626 0 0 1 0,0.002 13.505781,8.2334626 0 0 1 0,0.002 13.505781,8.2334626 0 0 1 0,0.002 13.505781,8.2334626 0 0 1 0,0.002 13.505781,8.2334626 0 0 1 0,0.002 13.505781,8.2334626 0 0 1 0,0.002 13.505781,8.2334626 0 0 1 0,0.002 13.505781,8.2334626 0 0 1 0,0.002 13.505781,8.2334626 0 0 1 0,0.002 13.505781,8.2334626 0 0 0 0.002,0 13.505781,8.2334626 0 0 0 0,0.002 13.505781,8.2334626 0 0 0 0,0.002 13.505781,8.2334626 0 0 0 0,0.002 13.505781,8.2334626 0 0 0 0,0.002 13.505781,8.2334626 0 0 1 0,0.002 13.505781,8.2334626 0 0 1 0,0.002 13.505781,8.2334626 0 0 1 0,0.002 13.505781,8.2334626 0 0 1 0,0.002 13.505781,8.2334626 0 0 1 0,0.002 13.505781,8.2334626 0 0 1 0,0.002 13.505781,8.2334626 0 0 1 0,0.002 13.505781,8.2334626 0 0 1 0,0.002 13.505781,8.2334626 0 0 1 0,0.002 13.505781,8.2334626 0 0 1 0,0.002 13.505781,8.2334626 0 0 1 0,0.002 13.505781,8.2334626 0 0 1 0,0.002 13.505781,8.2334626 0 0 1 0,0.002 13.505781,8.2334626 0 0 1 0,0.002 13.505781,8.2334626 0 0 1 0,0.002 13.505781,8.2334626 0 0 1 0,0.002 13.505781,8.2334626 0 0 1 0,0.002 13.505781,8.2334626 0 0 1 0,0.002 13.505781,8.2334626 0 0 1 0,0.002 13.505781,8.2334626 0 0 1 0,0.002 13.505781,8.2334626 0 0 1 0,0.002 13.505781,8.2334626 0 0 1 0,0.002 13.505781,8.2334626 0 0 1 0,0.002 13.505781,8.2334626 0 0 1 0,0.002 13.505781,8.2334626 0 0 1 0,0.002 13.505781,8.2334626 0 0 1 0,0.002 13.505781,8.2334626 0 0 1 0,0.002 13.505781,8.2334626 0 0 1 0,0.002 13.505781,8.2334626 0 0 1 0,0.002 13.505781,8.2334626 0 0 1 0,0.002 13.505781,8.2334626 0 0 1 0,0.002 13.505781,8.2334626 0 0 1 0,0.002 13.505781,8.2334626 0 0 1 0,0.002 13.505781,8.2334626 0 0 1 0,0.002 13.505781,8.2334626 0 0 1 0,0.002 13.505781,8.2334626 0 0 1 0,0.002 13.505781,8.2334626 0 0 1 0,0.002 13.505781,8.2334626 0 0 1 0,0.002 13.505781,8.2334626 0 0 1 0,0.002 13.505781,8.2334626 0 0 1 0,0.002 13.505781,8.2334626 0 0 1 0,0.002 13.505781,8.2334626 0 0 1 0,0.002 13.505781,8.2334626 0 0 1 0,0.002 13.505781,8.2334626 0 0 1 0,0.002 13.505781,8.2334626 0 0 1 0,0.002 13.505781,8.2334626 0 0 1 0,0.002 13.505781,8.2334626 0 0 1 0,0.002 13.505781,8.2334626 0 0 1 0,0.002 13.505781,8.2334626 0 0 1 0,0.002 13.505781,8.2334626 0 0 1 0,0.002 13.505781,8.2334626 0 0 1 0,0.002 13.505781,8.2334626 0 0 1 0,0.002 13.505781,8.2334626 0 0 1 0,0.002 13.505781,8.2334626 0 0 1 0,0.002 13.505781,8.2334626 0 0 1 0,0.002 13.505781,8.2334626 0 0 1 0,0.002 13.505781,8.2334626 0 0 1 0,0.002 13.505781,8.2334626 0 0 1 0,0.002 13.505781,8.2334626 0 0 1 0,0.002 13.505781,8.2334626 0 0 1 0,0.002 13.505781,8.2334626 0 0 1 0,0.002 13.505781,8.2334626 0 0 1 0,0.002 13.505781,8.2334626 0 0 1 0,0.002 13.505781,8.2334626 0 0 1 0,0.002 13.505781,8.2334626 0 0 1 0,0.002 13.505781,8.2334626 0 0 1 0,0.002 13.505781,8.2334626 0 0 1 0,0.002 13.505781,8.2334626 0 0 1 0,0.002 13.505781,8.2334626 0 0 1 0,0.002 13.505781,8.2334626 0 0 1 0,0.002 13.505781,8.2334626 0 0 1 0,0.002 13.505781,8.2334626 0 0 1 0,0.002 13.505781,8.2334626 0 0 1 0,0.002 13.505781,8.2334626 0 0 1 0,0.002 13.505781,8.2334626 0 0 1 0,0.002 13.505781,8.2334626 0 0 1 0,0.002 13.505781,8.2334626 0 0 1 0,0.002 13.505781,8.2334626 0 0 1 0,0.002 13.505781,8.2334626 0 0 1 0,0.002 13.505781,8.2334626 0 0 1 0,0.002 13.505781,8.2334626 0 0 1 0,0.002 13.505781,8.2334626 0 0 1 0,0.002 13.505781,8.2334626 0 0 1 0,0.002 13.505781,8.2334626 0 0 1 0,0.002 13.505781,8.2334626 0 0 1 0,0.002 13.505781,8.2334626 0 0 1 0,0.002 13.505781,8.2334626 0 0 1 0,0.002 13.505781,8.2334626 0 0 1 0,0.002 13.505781,8.2334626 0 0 1 0,0.002 13.505781,8.2334626 0 0 1 0,0.002 13.505781,8.2334626 0 0 1 0,0.002 13.505781,8.2334626 0 0 1 0,0.002 13.505781,8.2334626 0 0 1 0,0.002 13.505781,8.2334626 0 0 1 0,0.002 13.505781,8.2334626 0 0 1 0,0.002 13.505781,8.2334626 0 0 1 0,0.002 13.505781,8.2334626 0 0 1 0,0.002 13.505781,8.2334626 0 0 1 0,0.002 13.505781,8.2334626 0 0 1 -0.002,0.01367 13.505781,8.2334626 0 0 1 0,0.002 13.505781,8.2334626 0 0 1 0,0.002 13.505781,8.2334626 0 0 1 0,0.002 13.505781,8.2334626 0 0 1 0,0.002 13.505781,8.2334626 0 0 1 0,0.002 13.505781,8.2334626 0 0 1 0,0.002 13.505781,8.2334626 0 0 1 0,0.002 13.505781,8.2334626 0 0 1 0,0.002 13.505781,8.2334626 0 0 1 0,0.002 13.505781,8.2334626 0 0 1 0,0.002 13.505781,8.2334626 0 0 1 0,0.002 13.505781,8.2334626 0 0 1 0,0.002 13.505781,8.2334626 0 0 1 0,0.002 13.505781,8.2334626 0 0 1 0,0.002 13.505781,8.2334626 0 0 1 0,0.002 13.505781,8.2334626 0 0 1 0,0.002 13.505781,8.2334626 0 0 1 0,0.002 13.505781,8.2334626 0 0 1 0,0.002 13.505781,8.2334626 0 0 1 0,0.002 13.505781,8.2334626 0 0 1 0,0.002 13.505781,8.2334626 0 0 1 0,0.002 13.505781,8.2334626 0 0 1 0,0.002 13.505781,8.2334626 0 0 1 0,0.002 13.505781,8.2334626 0 0 1 0,0.002 13.505781,8.2334626 0 0 1 0,0.002 13.505781,8.2334626 0 0 1 0,0.002 13.505781,8.2334626 0 0 1 0,0.002 13.505781,8.2334626 0 0 1 0,0.002 13.505781,8.2334626 0 0 1 0,0.002 13.505781,8.2334626 0 0 1 0,0.002 13.505781,8.2334626 0 0 1 0,0.002 13.505781,8.2334626 0 0 1 0,0.002 13.505781,8.2334626 0 0 1 0,0.002 13.505781,8.2334626 0 0 1 0,0.002 13.505781,8.2334626 0 0 1 0,0.002 13.505781,8.2334626 0 0 1 -0.002,0.01758 13.505781,8.2334626 0 0 1 0,0.002 13.505781,8.2334626 0 0 1 0,0.002 13.505781,8.2334626 0 0 1 0,0.002 13.505781,8.2334626 0 0 1 0,0.002 13.505781,8.2334626 0 0 1 0,0.002 13.505781,8.2334626 0 0 1 0,0.0039 13.505781,8.2334626 0 0 1 0,0.002 13.505781,8.2334626 0 0 1 0,0.002 13.505781,8.2334626 0 0 1 0,0.002 13.505781,8.2334626 0 0 1 0,0.002 13.505781,8.2334626 0 0 1 0,0.002 13.505781,8.2334626 0 0 1 -0.002,0.01758 13.505781,8.2334626 0 0 1 0,0.002 13.505781,8.2334626 0 0 1 0,0.002 13.505781,8.2334626 0 0 1 0,0.002 13.505781,8.2334626 0 0 1 0,0.002 13.505781,8.2334626 0 0 1 0,0.002 13.505781,8.2334626 0 0 1 0,0.0039 13.505781,8.2334626 0 0 1 0,0.002 13.505781,8.2334626 0 0 1 0,0.002 13.505781,8.2334626 0 0 1 0,0.002 13.505781,8.2334626 0 0 1 0,0.002 13.505781,8.2334626 0 0 1 0,0.002 13.505781,8.2334626 0 0 1 -0.002,0.01563 13.505781,8.2334626 0 0 1 0,0.002 13.505781,8.2334626 0 0 1 0,0.002 13.505781,8.2334626 0 0 1 0,0.002 13.505781,8.2334626 0 0 1 0,0.002 13.505781,8.2334626 0 0 1 0,0.002 13.505781,8.2334626 0 0 1 0,0.0039 13.505781,8.2334626 0 0 1 0,0.002 13.505781,8.2334626 0 0 1 0,0.002 13.505781,8.2334626 0 0 1 0,0.002 13.505781,8.2334626 0 0 1 0,0.002 13.505781,8.2334626 0 0 1 0,0.002 13.505781,8.2334626 0 0 1 -0.002,0.01758 13.505781,8.2334626 0 0 1 0,0.002 13.505781,8.2334626 0 0 1 0,0.002 13.505781,8.2334626 0 0 1 0,0.002 13.505781,8.2334626 0 0 1 0,0.002 13.505781,8.2334626 0 0 1 0,0.002 13.505781,8.2334626 0 0 1 0,0.0039 13.505781,8.2334626 0 0 1 0,0.002 13.505781,8.2334626 0 0 1 0,0.002 13.505781,8.2334626 0 0 1 0,0.002 13.505781,8.2334626 0 0 1 0,0.002 13.505781,8.2334626 0 0 1 0,0.002 13.505781,8.2334626 0 0 1 -0.0039,0.01758 13.505781,8.2334626 0 0 1 0,0.002 13.505781,8.2334626 0 0 1 0,0.002 13.505781,8.2334626 0 0 1 0,0.002 13.505781,8.2334626 0 0 1 0,0.002 13.505781,8.2334626 0 0 1 0,0.002 13.505781,8.2334626 0 0 1 0,0.0039 13.505781,8.2334626 0 0 1 0,0.002 13.505781,8.2334626 0 0 1 0,0.002 13.505781,8.2334626 0 0 1 0,0.002 13.505781,8.2334626 0 0 1 0,0.002 13.505781,8.2334626 0 0 1 0,0.002 13.505781,8.2334626 0 0 1 -0.002,0.01758 13.505781,8.2334626 0 0 1 0,0.002 13.505781,8.2334626 0 0 1 0,0.002 13.505781,8.2334626 0 0 1 0,0.002 13.505781,8.2334626 0 0 1 0,0.002 13.505781,8.2334626 0 0 1 0,0.002 13.505781,8.2334626 0 0 1 0,0.0039 13.505781,8.2334626 0 0 1 0,0.002 13.505781,8.2334626 0 0 1 0,0.002 13.505781,8.2334626 0 0 1 0,0.002 13.505781,8.2334626 0 0 1 0,0.002 13.505781,8.2334626 0 0 1 0,0.002 13.505781,8.2334626 0 0 1 -0.0039,0.01563 13.505781,8.2334626 0 0 1 0,0.002 13.505781,8.2334626 0 0 1 0,0.002 13.505781,8.2334626 0 0 1 0,0.002 13.505781,8.2334626 0 0 1 0,0.002 13.505781,8.2334626 0 0 1 0,0.002 13.505781,8.2334626 0 0 1 0,0.0039 13.505781,8.2334626 0 0 1 0,0.002 13.505781,8.2334626 0 0 1 0,0.002 13.505781,8.2334626 0 0 1 0,0.002 13.505781,8.2334626 0 0 1 0,0.002 13.505781,8.2334626 0 0 1 0,0.002 13.505781,8.2334626 0 0 1 -0.0039,0.01758 13.505781,8.2334626 0 0 1 0,0.002 13.505781,8.2334626 0 0 1 0,0.002 13.505781,8.2334626 0 0 1 0,0.002 13.505781,8.2334626 0 0 1 0,0.002 13.505781,8.2334626 0 0 1 0,0.002 13.505781,8.2334626 0 0 1 0,0.0039 13.505781,8.2334626 0 0 1 0,0.002 13.505781,8.2334626 0 0 1 0,0.002 13.505781,8.2334626 0 0 1 0,0.002 13.505781,8.2334626 0 0 1 0,0.002 13.505781,8.2334626 0 0 1 0,0.002 13.505781,8.2334626 0 0 1 -0.0039,0.01758 13.505781,8.2334626 0 0 1 0,0.002 13.505781,8.2334626 0 0 1 0,0.002 13.505781,8.2334626 0 0 1 0,0.002 13.505781,8.2334626 0 0 1 0,0.002 13.505781,8.2334626 0 0 1 0,0.002 13.505781,8.2334626 0 0 1 0,0.0039 13.505781,8.2334626 0 0 1 0,0.002 13.505781,8.2334626 0 0 1 0,0.002 13.505781,8.2334626 0 0 1 0,0.002 13.505781,8.2334626 0 0 1 0,0.002 13.505781,8.2334626 0 0 1 0,0.002 13.505781,8.2334626 0 0 1 -0.0039,0.0293 13.505781,8.2334626 0 0 1 0,0.002 13.505781,8.2334626 0 0 1 0,0.002 13.505781,8.2334626 0 0 1 0,0.002 13.505781,8.2334626 0 0 1 0,0.002 13.505781,8.2334626 0 0 1 0,0.002 13.505781,8.2334626 0 0 1 -0.0059,0.04102 13.505781,8.2334626 0 0 1 -0.0039,0.01758 13.505781,8.2334626 0 0 1 0,0.002 13.505781,8.2334626 0 0 1 0,0.002 13.505781,8.2334626 0 0 1 0,0.002 13.505781,8.2334626 0 0 1 0,0.002 13.505781,8.2334626 0 0 1 0,0.002 13.505781,8.2334626 0 0 1 0,0.0039 13.505781,8.2334626 0 0 0 0,0.002 13.505781,8.2334626 0 0 0 0,0.002 13.505781,8.2334626 0 0 1 0,0.002 13.505781,8.2334626 0 0 1 0,0.002 13.505781,8.2334626 0 0 1 0,0.002 13.505781,8.2334626 0 0 1 -0.0059,0.04102 13.505781,8.2334626 0 0 1 -0.0059,0.03906 13.505781,8.2334626 0 0 1 -0.0059,0.04102 13.505781,8.2334626 0 0 1 -0.0078,0.04102 13.505781,8.2334626 0 0 1 -0.0059,0.03906 13.505781,8.2334626 0 0 1 -0.0078,0.04102 13.505781,8.2334626 0 0 1 -0.0059,0.04102 13.505781,8.2334626 0 0 1 -0.0078,0.03906 13.505781,8.2334626 0 0 1 -0.0078,0.04102 13.505781,8.2334626 0 0 1 -0.0098,0.03906 13.505781,8.2334626 0 0 1 -0.0078,0.04102 13.505781,8.2334626 0 0 1 -0.0098,0.04102 13.505781,8.2334626 0 0 1 -0.0078,0.03906 13.505781,8.2334626 0 0 1 -0.410157,1.148438 13.505781,8.2334626 0 0 1 -0.673828,1.099609 13.505781,8.2334626 0 0 1 -0.923828,1.03125 13.505781,8.2334626 0 0 1 -1.154297,0.941406 13.505781,8.2334626 0 0 1 -1.363281,0.830078 13.505781,8.2334626 0 0 1 -1.542969,0.703125 13.505781,8.2334626 0 0 1 -1.6913,0.521499 13.505781,8.2334626 0 0 1 -1.804688,0.410156 13.505781,8.2334626 0 0 1 -1.730468,0.230469 v 1.455078 a 15.875563,9.6781574 0 0 0 2.035156,-0.248047 15.875563,9.6781574 0 0 0 1.966797,-0.40625 15.875563,9.6781574 0 0 0 1.861328,-0.560547 15.875563,9.6781574 0 0 0 1.726562,-0.703125 15.875563,9.6781574 0 0 0 1.5625,-0.833984 15.875563,9.6781574 0 0 0 1.367188,-0.953125 15.875563,9.6781574 0 0 0 1.154297,-1.050781 15.875563,9.6781574 0 0 0 0.919922,-1.136719 15.875563,9.6781574 0 0 0 0.667968,-1.199219 15.875563,9.6781574 0 0 0 0.404297,-1.240234 A 15.875563,9.6781574 0 0 0 93.376953,20.5 15.875563,9.6781574 0 0 0 93.359375,20.066406 15.875563,9.6781574 0 0 0 93.3125,19.632812 15.875563,9.6781574 0 0 0 93.232422,19.201172 15.875563,9.6781574 0 0 0 93.121094,18.771484 15.875563,9.6781574 0 0 0 92.978516,18.345703 15.875563,9.6781574 0 0 0 92.802734,17.925781 15.875563,9.6781574 0 0 0 92.599609,17.509766 15.875563,9.6781574 0 0 0 92.363281,17.099609 15.875563,9.6781574 0 0 0 92.097656,16.697266 15.875563,9.6781574 0 0 0 91.804687,16.300781 15.875563,9.6781574 0 0 0 91.480469,15.914063 15.875563,9.6781574 0 0 0 91.128906,15.535156 15.875563,9.6781574 0 0 0 90.75,15.167969 15.875563,9.6781574 0 0 0 90.34375,14.810547 15.875563,9.6781574 0 0 0 89.912109,14.464844 15.875563,9.6781574 0 0 0 89.455078,14.132813 15.875563,9.6781574 0 0 0 88.974609,13.810547 15.875563,9.6781574 0 0 0 88.470703,13.503906 15.875563,9.6781574 0 0 0 87.945312,13.210938 15.875563,9.6781574 0 0 0 87.398437,12.933594 15.875563,9.6781574 0 0 0 86.832031,12.669922 15.875563,9.6781574 0 0 0 86.246094,12.421875 15.875563,9.6781574 0 0 0 85.642578,12.191406 15.875563,9.6781574 0 0 0 85.023437,11.976563 15.875563,9.6781574 0 0 0 84.388672,11.78125 15.875563,9.6781574 0 0 0 83.740234,11.599609 15.875563,9.6781574 0 0 0 83.078125,11.439453 15.875563,9.6781574 0 0 0 82.40625,11.294922 a 15.875563,9.6781574 0 0 0 -0.683594,-0.125 15.875563,9.6781574 0 0 0 -0.689453,-0.105469 15.875563,9.6781574 0 0 0 -0.699219,-0.08594 15.875563,9.6781574 0 0 0 -0.703125,-0.06836 15.875563,9.6781574 0 0 0 -0.05664,-0.0039 z"
       style="fill:#ffffff;stroke:#ffffff;stroke-width:1.891"
       id="path58" />
    <path
       d="M 75.425781,30.095703 V 28.630859 A 13.505781,8.2334626 0 0 1 73.695312,28.400391 13.505781,8.2334626 0 0 1 71.888672,27.990234 13.505781,8.2334626 0 0 1 70.199219,27.425781 13.505781,8.2334626 0 0 1 68.65625,26.722656 13.505781,8.2334626 0 0 1 67.292969,25.892578 13.505781,8.2334626 0 0 1 66.138672,24.951172 13.505781,8.2334626 0 0 1 65.214844,23.919922 13.505781,8.2334626 0 0 1 64.541016,22.820312 13.505781,8.2334626 0 0 1 64.130859,21.671875 13.505781,8.2334626 0 0 1 63.994141,20.5 a 13.505781,8.2334626 0 0 1 0.136718,-1.171875 13.505781,8.2334626 0 0 1 0.410157,-1.148438 13.505781,8.2334626 0 0 1 0.673828,-1.099609 13.505781,8.2334626 0 0 1 0.923828,-1.03125 13.505781,8.2334626 0 0 1 1.154297,-0.941406 13.505781,8.2334626 0 0 1 1.363281,-0.830078 13.505781,8.2334626 0 0 1 1.542969,-0.703125 13.505781,8.2334626 0 0 1 1.689453,-0.564453 13.505781,8.2334626 0 0 1 1.80664,-0.410157 13.505781,8.2334626 0 0 1 1.730469,-0.230468 v -1.464844 a 15.875563,9.6781574 0 0 0 -2.035156,0.248047 15.875563,9.6781574 0 0 0 -1.966797,0.40625 15.875563,9.6781574 0 0 0 -1.861328,0.560547 15.875563,9.6781574 0 0 0 -1.726563,0.703125 15.875563,9.6781574 0 0 0 -1.5625,0.833984 15.875563,9.6781574 0 0 0 -1.367187,0.953125 15.875563,9.6781574 0 0 0 -1.154297,1.050781 15.875563,9.6781574 0 0 0 -0.919922,1.136719 15.875563,9.6781574 0 0 0 -0.667969,1.199219 15.875563,9.6781574 0 0 0 -0.404296,1.240234 15.875563,9.6781574 0 0 0 -0.136719,1.263672 15.875563,9.6781574 0 0 0 0.136719,1.263672 15.875563,9.6781574 0 0 0 0.404296,1.240234 15.875563,9.6781574 0 0 0 0.667969,1.199219 15.875563,9.6781574 0 0 0 0.919922,1.136719 15.875563,9.6781574 0 0 0 1.154297,1.050781 15.875563,9.6781574 0 0 0 1.367187,0.953125 15.875563,9.6781574 0 0 0 1.5625,0.833984 15.875563,9.6781574 0 0 0 1.726563,0.703125 15.875563,9.6781574 0 0 0 1.861328,0.560547 15.875563,9.6781574 0 0 0 1.966797,0.40625 15.875563,9.6781574 0 0 0 2.035156,0.248047 z"
       style="fill:#ffffff;stroke:#ffffff;stroke-width:1.891"
       id="path66" />
    <path
       d="M 79.574219,10.90625 A 15.875563,9.6781574 0 0 0 78.923828,10.86133 15.875563,9.6781574 0 0 0 78.212891,10.83203 15.875563,9.6781574 0 0 0 77.5,10.82223 a 15.875563,9.6781574 0 0 0 -2.072266,0.08203 15.875563,9.6781574 0 0 0 -0.002,0 v 1.464844 a 13.505781,8.2334626 0 0 1 0.152344,-0.01953 13.505781,8.2334626 0 0 1 1.921875,-0.08398 13.505781,8.2334626 0 0 1 0.662109,0.01172 13.505781,8.2334626 0 0 1 0.66211,0.0293 13.505781,8.2334626 0 0 1 0.658203,0.04883 13.505781,8.2334626 0 0 1 0.0918,0.0098 z"
       style="fill:#ffffff;stroke:#ffffff;stroke-width:1.891"
       id="path59" />
    <path
       d="m 79.574219,12.365234 a 13.505781,8.2334626 0 0 0 -0.0918,-0.0098 13.505781,8.2334626 0 0 0 -0.658203,-0.04883 13.505781,8.2334626 0 0 0 -0.66211,-0.0293 13.505781,8.2334626 0 0 0 -0.662109,-0.01172 13.505781,8.2334626 0 0 0 -1.921875,0.08398 13.505781,8.2334626 0 0 0 -0.152344,0.01953 v 16.261718 a 13.505781,8.2334626 0 0 0 0.152344,0.01953 13.505781,8.2334626 0 0 0 1.921875,0.08398 13.505781,8.2334626 0 0 0 1.921875,-0.08398 13.505781,8.2334626 0 0 0 0.152344,-0.01953 z"
       style="fill:#ffffff;stroke:#ffffff;stroke-width:1.891"
       id="path60" />
    <path
       d="m 79.574219,28.630859 a 13.505781,8.2334626 0 0 1 -0.152344,0.01953 13.505781,8.2334626 0 0 1 -1.921875,0.08398 13.505781,8.2334626 0 0 1 -1.921875,-0.08398 13.505781,8.2334626 0 0 1 -0.152344,-0.01953 v 1.464844 a 15.875563,9.6781574 0 0 0 0.002,0 15.875563,9.6781574 0 0 0 2.072266,0.08203 15.875563,9.6781574 0 0 0 2.072266,-0.08203 15.875563,9.6781574 0 0 0 0.002,0 v -1.455078 z"
       style="fill:#ffffff;stroke:#ffffff;stroke-width:1.891"
       id="path61" />
    <path
       d="m 79.574219,30.095703 a 15.875563,9.6781574 0 0 0 -0.002,0 15.875563,9.6781574 0 0 1 -2.072266,0.08203 15.875563,9.6781574 0 0 1 -2.072266,-0.08203 15.875563,9.6781574 0 0 0 -0.002,0 v 7.119141 c 0.03725,0.0017 0.07408,0.0062 0.111328,0.0078 0.65276,0.02866 1.308027,0.04277 1.962891,0.04297 0.654863,-2e-4 1.310133,-0.01431 1.962891,-0.04297 0.03726,-0.0016 0.07409,-0.0061 0.111328,-0.0078 z"
       style="fill:#ffffff;stroke:#ffffff;stroke-width:1.891"
       id="path62" />
    <path
       d="m 79.574219,37.214844 c -0.03724,0.0017 -0.07407,0.0062 -0.111328,0.0078 -0.652758,0.02866 -1.308028,0.04277 -1.962891,0.04297 -0.654864,-1.98e-4 -1.310131,-0.01431 -1.962891,-0.04297 -0.03725,-0.0016 -0.07408,-0.0061 -0.111328,-0.0078 v 1.132812 c 0,0.125725 0.0059,0.24484 0.01758,0.353516 0.01163,0.108676 0.028,0.207024 0.04883,0.289062 0.02083,0.08204 0.04663,0.147546 0.07422,0.19336 0.02759,0.04581 0.05792,0.07227 0.08984,0.07227 h 3.6875 c 0.03192,0 0.06225,-0.02645 0.08984,-0.07227 0.02174,-0.0361 0.04063,-0.09332 0.05859,-0.152344 v -0.638672 c 10e-7,-0.125724 0.0059,-0.24484 0.01758,-0.353516 0.01163,-0.108674 0.028,-0.207022 0.04883,-0.289062 0.0044,-0.01724 0.01093,-0.02522 0.01563,-0.04102 z"
       style="fill:#ffffff;stroke:#ffffff;stroke-width:1.891"
       id="path63" />
    <path
       d="M 79.574219,3.7890625 C 79.332689,3.7779155 79.091555,3.7631094 78.849609,3.7558594 78.400101,3.7419654 77.95009,3.7348023 77.5,3.734375 c -0.654864,1.99e-4 -1.310131,0.014305 -1.962891,0.042969 -0.03726,0.00163 -0.07409,0.00608 -0.111328,0.00781 v 7.119141 a 15.875563,9.6781574 0 0 0 0.002,0 15.875563,9.6781574 0 0 1 2.072266,-0.08203 15.875563,9.6781574 0 0 1 0.712891,0.0098 15.875563,9.6781574 0 0 1 0.710937,0.0293 15.875563,9.6781574 0 0 1 0.650391,0.04492 z"
       style="fill:#ffffff;stroke:#ffffff;stroke-width:1.891"
       id="path56" />
    <path
       d="M 79.574219,3.7890625 V 2.6523438 c 0,-0.1257243 -0.0059,-0.2448403 -0.01758,-0.3535157 -0.01163,-0.1086753 -0.028,-0.2070242 -0.04883,-0.2890625 -0.02083,-0.082039 -0.04663,-0.1475459 -0.07422,-0.1933594 -0.02759,-0.045813 -0.05792,-0.072266 -0.08984,-0.072266 h -3.6875 c -0.03192,0 -0.06225,0.026452 -0.08984,0.072266 -0.02759,0.045813 -0.05339,0.1113211 -0.07422,0.1933594 -0.02083,0.082039 -0.0372,0.1803872 -0.04883,0.2890625 -0.01163,0.1086754 -0.01758,0.2277914 -0.01758,0.3535157 v 1.1328125 c 0.03724,-0.00173 0.07407,-0.00618 0.111328,-0.00781 0.65276,-0.028664 1.308027,-0.04277 1.962891,-0.042969 0.45009,4.273e-4 0.900101,0.00759 1.349609,0.021484 0.241946,0.00725 0.48308,0.022056 0.72461,0.033203 z"
       style="fill:#ffffff;stroke:#ffffff;stroke-width:1.891"
       id="path57" />
    <path
       d="m 90.964844,21.181641 a 13.505781,8.2334626 0 0 1 -0.0059,0.02734 13.505781,8.2334626 0 0 1 -0.0059,0.03906 13.505781,8.2334626 0 0 1 -0.0059,0.04102 13.505781,8.2334626 0 0 1 -0.0078,0.04102 13.505781,8.2334626 0 0 1 -0.0059,0.03906 13.505781,8.2334626 0 0 1 -0.0078,0.04102 13.505781,8.2334626 0 0 1 -0.0059,0.04102 13.505781,8.2334626 0 0 1 -0.0078,0.03906 13.505781,8.2334626 0 0 1 -0.0078,0.04102 13.505781,8.2334626 0 0 1 -0.0098,0.03906 13.505781,8.2334626 0 0 1 -0.0078,0.04102 13.505781,8.2334626 0 0 1 -0.0098,0.04102 13.505781,8.2334626 0 0 1 -0.0078,0.03906 13.505781,8.2334626 0 0 1 -0.410157,1.148438 13.505781,8.2334626 0 0 1 -0.673828,1.099609 13.505781,8.2334626 0 0 1 -0.923828,1.03125 13.505781,8.2334626 0 0 1 -1.154297,0.941406 13.505781,8.2334626 0 0 1 -1.363281,0.830078 13.505781,8.2334626 0 0 1 -1.542969,0.703125 A 13.505781,8.2334626 0 0 1 83.109375,28 a 13.505781,8.2334626 0 0 0 1.691406,-0.541016 13.505781,8.2334626 0 0 0 1.542969,-0.703125 13.505781,8.2334626 0 0 0 1.363281,-0.830078 13.505781,8.2334626 0 0 0 1.154297,-0.941406 13.505781,8.2334626 0 0 0 0.923828,-1.03125 13.505781,8.2334626 0 0 0 0.673828,-1.099609 13.505781,8.2334626 0 0 0 0.410157,-1.148438 13.505781,8.2334626 0 0 0 0.0078,-0.03906 13.505781,8.2334626 0 0 0 0.0098,-0.04102 13.505781,8.2334626 0 0 0 0.0078,-0.04102 13.505781,8.2334626 0 0 0 0.0098,-0.03906 13.505781,8.2334626 0 0 0 0.0078,-0.04102 13.505781,8.2334626 0 0 0 0.0078,-0.03906 13.505781,8.2334626 0 0 0 0.0059,-0.04102 13.505781,8.2334626 0 0 0 0.0078,-0.04102 13.505781,8.2334626 0 0 0 0.0059,-0.03906 13.505781,8.2334626 0 0 0 0.0078,-0.04102 13.505781,8.2334626 0 0 0 0.0059,-0.04102 13.505781,8.2334626 0 0 0 0.0059,-0.03906 13.505781,8.2334626 0 0 0 0.0059,-0.04102 z"
       style="fill:#ffffff;stroke:#ffffff;stroke-width:1.891"
       id="path69" />
    <path
       d="m 90.964844,21.171875 a 13.505781,8.2334626 0 0 1 -0.0059,0.02734 13.505781,8.2334626 0 0 1 -0.0059,0.03906 13.505781,8.2334626 0 0 1 -0.0059,0.04102 13.505781,8.2334626 0 0 1 -0.0078,0.04102 13.505781,8.2334626 0 0 1 -0.0059,0.03906 13.505781,8.2334626 0 0 1 -0.0078,0.04102 13.505781,8.2334626 0 0 1 -0.0059,0.04102 13.505781,8.2334626 0 0 1 -0.0078,0.03906 13.505781,8.2334626 0 0 1 -0.0078,0.04102 13.505781,8.2334626 0 0 1 -0.0098,0.03906 13.505781,8.2334626 0 0 1 -0.0078,0.04102 13.505781,8.2334626 0 0 1 -0.0098,0.04102 13.505781,8.2334626 0 0 1 -0.0078,0.03906 13.505781,8.2334626 0 0 1 -0.410157,1.148437 13.505781,8.2334626 0 0 1 -0.673828,1.099609 13.505781,8.2334626 0 0 1 -0.923828,1.03125 13.505781,8.2334626 0 0 1 -1.154297,0.941407 13.505781,8.2334626 0 0 1 -1.363281,0.830078 13.505781,8.2334626 0 0 1 -1.542969,0.703125 A 13.505781,8.2334626 0 0 1 83.109375,28 a 13.505781,8.2334626 0 0 0 1.691406,-0.554688 13.505781,8.2334626 0 0 0 1.542969,-0.703125 13.505781,8.2334626 0 0 0 1.363281,-0.830078 13.505781,8.2334626 0 0 0 1.154297,-0.941406 13.505781,8.2334626 0 0 0 0.923828,-1.03125 13.505781,8.2334626 0 0 0 0.673828,-1.099609 13.505781,8.2334626 0 0 0 0.410157,-1.148438 13.505781,8.2334626 0 0 0 0.0078,-0.03906 13.505781,8.2334626 0 0 0 0.0098,-0.04102 13.505781,8.2334626 0 0 0 0.0078,-0.04102 13.505781,8.2334626 0 0 0 0.0098,-0.03906 13.505781,8.2334626 0 0 0 0.0078,-0.04102 13.505781,8.2334626 0 0 0 0.0078,-0.03906 13.505781,8.2334626 0 0 0 0.0059,-0.04102 13.505781,8.2334626 0 0 0 0.0078,-0.04102 13.505781,8.2334626 0 0 0 0.0059,-0.03906 13.505781,8.2334626 0 0 0 0.0078,-0.04102 13.505781,8.2334626 0 0 0 0.0059,-0.04102 13.505781,8.2334626 0 0 0 0.0059,-0.03906 13.505781,8.2334626 0 0 0 0.0059,-0.02734 13.505781,8.2334626 0 0 0 0,-0.002 13.505781,8.2334626 0 0 0 0,-0.002 13.505781,8.2334626 0 0 0 0,-0.002 13.505781,8.2334626 0 0 0 0,-0.002 13.505781,8.2334626 0 0 0 0,-0.002 z"
       style="fill:#ffffff;stroke:#ffffff;stroke-width:1.891"
       id="path68" />
    <path
       d="m 79.574219,37.708984 c -0.0047,0.0158 -0.01125,0.02378 -0.01563,0.04102 -0.02083,0.08204 -0.0372,0.180388 -0.04883,0.289062 -0.01163,0.108676 -0.01758,0.227792 -0.01758,0.353516 v 0.638672 c 0.0048,-0.01587 0.01121,-0.02363 0.01563,-0.04102 0.02083,-0.08204 0.0372,-0.180386 0.04883,-0.289062 0.01163,-0.108676 0.01758,-0.227791 0.01758,-0.353516 z"
       style="fill:#ffffff;stroke:#ffffff;stroke-width:1.891"
       id="path64" />
  </g>
</svg>
